<svg xmlns="http://www.w3.org/2000/svg" width="60.292" height="35.5" viewBox="0 0 60.292 35.5">
  <g id="Page-1" transform="translate(0 -0.5)">
    <g id="Core" transform="translate(0 0.5)">
      <g id="attachment" transform="translate(0 0)">
        <path id="Shape" d="M16.58,35.5C7.536,35.5,0,27.432,0,17.75S7.536,0,16.58,0H48.233c6.632,0,12.058,5.809,12.058,12.909S54.866,25.818,48.233,25.818H22.609c-4.22,0-7.536-3.55-7.536-8.068s3.316-8.068,7.536-8.068H45.219v4.841H22.609a2.953,2.953,0,0,0-3.015,3.227,2.953,2.953,0,0,0,3.015,3.227H48.233c4.22,0,7.536-3.55,7.536-8.068s-3.316-8.068-7.536-8.068H16.58C9.948,4.841,4.522,10.65,4.522,17.75S9.948,30.659,16.58,30.659H45.219V35.5Z" fill="#20303c" fill-rule="evenodd"/>
      </g>
    </g>
  </g>
</svg>
