<svg xmlns="http://www.w3.org/2000/svg" width="9.036" height="12.989" viewBox="0 0 9.036 12.989">
  <g id="Group_25" data-name="Group 25" transform="translate(-813.336 -276.187)">
    <path id="rect989-9" d="M-872.78-414.187h7.377a.4.4,0,0,1,.429.353v8.381a.4.4,0,0,1-.429.353h-7.377a.4.4,0,0,1-.429-.353v-8.381A.4.4,0,0,1-872.78-414.187Z" transform="translate(1686.945 693.876)" fill="none" stroke="#ef473a" stroke-linecap="round" stroke-linejoin="round" stroke-miterlimit="6.2" stroke-width="0.8"/>
    <path id="path1131" d="M-872.764-427.625h8.2" transform="translate(1686.531 705.79)" fill="none" stroke="#ef473a" stroke-linecap="round" stroke-linejoin="round" stroke-width="0.8"/>
    <path id="path1133" d="M-847.834-394.011v4.6" transform="translate(1663.359 675.88)" fill="none" stroke="#ef473a" stroke-linecap="round" stroke-linejoin="round" stroke-width="0.8"/>
    <path id="path1135" d="M-814.784-394.011v4.6" transform="translate(1632.639 675.88)" fill="none" stroke="#ef473a" stroke-linecap="round" stroke-linejoin="round" stroke-width="0.8"/>
    <path id="path1137" d="M-781.734-394.011v4.6" transform="translate(1601.918 675.88)" fill="none" stroke="#ef473a" stroke-linecap="round" stroke-linejoin="round" stroke-width="0.8"/>
    <path id="path1139" d="M-831.685-433.911h2.408" transform="translate(1648.348 710.498)" fill="none" stroke="#ef473a" stroke-linecap="round" stroke-linejoin="round" stroke-width="0.8"/>
  </g>
</svg>
