<svg xmlns="http://www.w3.org/2000/svg" width="501.711" height="512" viewBox="0 0 501.711 512">
  <g id="googleloginicon" transform="translate(-17.646 -14.019)">
    <path id="Path_1" data-name="Path 1" d="M190.011,28.025C127.672,49.355,74.554,96.005,44.968,155.041a253.429,253.429,0,0,0-22.293,64.4A256.155,256.155,0,0,0,207.35,517.374c42.66,11.422,88.072,11.147,131.007,1.376,38.807-8.945,75.549-27.522,104.86-54.494,30.963-28.486,53.118-65.916,64.815-106.237,12.8-43.9,14.449-90.824,6.468-135.961H273.679v99.906H413.218a120.559,120.559,0,0,1-51.192,79.127C345.1,412.513,325.7,419.807,305.6,423.385c-20.091,3.44-41.008,3.853-61.1-.138a151.537,151.537,0,0,1-56.971-24.633,158.267,158.267,0,0,1-58.623-78.577,155.324,155.324,0,0,1,0-99.631A159.872,159.872,0,0,1,166.066,160,150.514,150.514,0,0,1,317.715,120.5,137.81,137.81,0,0,1,372.9,152.977l47.063-47.063c8.257-8.394,16.926-16.513,24.908-25.183a249.6,249.6,0,0,0-82.43-51.054C307.394,9.31,245.468,8.9,190.011,28.025Z" transform="translate(0 0.004)" fill="#fff"/>
    <g id="Group_1" data-name="Group 1" transform="translate(44.968 14.019)">
      <path id="Path_2" data-name="Path 2" d="M182.543,28.029C237.863,8.9,299.926,9.314,354.971,29.543A248.741,248.741,0,0,1,437.4,80.6c-7.981,8.67-16.651,16.789-24.908,25.183L365.43,152.844a139.41,139.41,0,0,0-55.182-32.476,151.117,151.117,0,0,0-75.136-3.027A152.953,152.953,0,0,0,158.6,159.862a158.822,158.822,0,0,0-37.155,60.412C93.508,198.531,65.573,176.926,37.5,155.183,67.087,96.01,120.2,49.359,182.543,28.029Z" transform="translate(-37.5 -14.019)" fill="#ea4335"/>
    </g>
    <g id="Group_2" data-name="Group 2" transform="translate(17.791 154.908)">
      <path id="Path_3" data-name="Path 3" d="M22.772,180.8a255.284,255.284,0,0,1,22.293-64.4c27.935,21.743,55.871,43.348,83.943,65.091a154.4,154.4,0,0,0,0,99.631q-41.9,32.614-83.806,65.091C19.332,295.709,11.488,236.4,22.772,180.8Z" transform="translate(-17.751 -116.4)" fill="#fbbc05"/>
    </g>
    <g id="Group_3" data-name="Group 3" transform="translate(273.541 221.925)">
      <path id="Path_4" data-name="Path 4" d="M203.738,165.1H444.559c7.981,45,6.193,91.925-6.468,135.961-11.7,40.32-33.853,77.751-64.815,106.237l-81.329-63.164a120.56,120.56,0,0,0,51.192-79.127H203.6Q203.806,215.053,203.738,165.1Z" transform="translate(-203.6 -165.1)" fill="#4285f4"/>
    </g>
    <g id="Group_4" data-name="Group 4" transform="translate(44.968 319.767)">
      <path id="Path_5" data-name="Path 5" d="M37.5,301.291q41.9-32.408,83.806-65.091a159.072,159.072,0,0,0,58.623,78.576A152.489,152.489,0,0,0,236.9,339.409c20.091,4.128,40.871,3.578,61.1.138,20.091-3.578,39.495-10.871,56.421-22.293l81.329,63.164c-29.311,27.11-66.054,45.55-104.86,54.494-42.935,9.77-88.347,10.046-131.007-1.376a252.921,252.921,0,0,1-93.026-46.926A257.7,257.7,0,0,1,37.5,301.291Z" transform="translate(-37.5 -236.2)" fill="#34a853"/>
    </g>
  </g>
</svg>
