<svg xmlns="http://www.w3.org/2000/svg" width="13.369" height="16.814" viewBox="0 0 13.369 16.814">
  <g id="Group_3114" data-name="Group 3114" opacity="0.6">
    <path id="Path_346" data-name="Path 346" d="M902.666,866.918h0c-3.7,0-6.684,2.715-6.684,6.077a6.161,6.161,0,0,0,.985,3.211l4.356,6.854a1.569,1.569,0,0,0,1.343.671,1.6,1.6,0,0,0,1.343-.671l4.356-6.85A6.067,6.067,0,0,0,909.35,873C909.35,869.637,906.364,866.918,902.666,866.918Zm0,7.872a2.228,2.228,0,1,1,2.44-2.218A2.342,2.342,0,0,1,902.666,874.79Z" transform="translate(-895.981 -866.918)" fill="#0a0918"/>
  </g>
</svg>
