<svg xmlns="http://www.w3.org/2000/svg" width="60" height="60" viewBox="0 0 60 60">
  <g id="Group_248" data-name="Group 248" transform="translate(-1040 -449)">
    <g id="Group_247" data-name="Group 247">
      <path id="check" d="M800,510a30,30,0,1,1,30-30,30,30,0,0,1-30,30Zm-16.986-23.235a3.484,3.484,0,0,1,0-4.9l1.766-1.756a3.185,3.185,0,0,1,4.574.051l3.12,3.237a1.592,1.592,0,0,0,2.311,0l15.9-16.39a3.187,3.187,0,0,1,4.6-.027L817,468.714a3.482,3.482,0,0,1,0,4.846l-21.109,21.451a3.185,3.185,0,0,1-4.552.03Z" transform="translate(270 -1)" fill="#ea4435" fill-rule="evenodd"/>
      <ellipse id="Ellipse_49" data-name="Ellipse 49" cx="21.5" cy="21" rx="21.5" ry="21" transform="translate(1049 459)" fill="#ea4435"/>
    </g>
    <g id="Group_249" data-name="Group 249" transform="translate(-1.339)">
      <rect id="Rectangle_113" data-name="Rectangle 113" width="36" height="9" rx="3" transform="translate(1055.93 489.01) rotate(-45)" fill="#fff"/>
      <rect id="Rectangle_114" data-name="Rectangle 114" width="36" height="9" rx="3" transform="translate(1061.293 463.554) rotate(45)" fill="#fff"/>
    </g>
  </g>
</svg>
